<mxfile host="app.diagrams.net" modified="2022-12-03T00:52:56.253Z" agent="5.0 (Windows NT 10.0; Win64; x64) AppleWebKit/537.36 (KHTML, like Gecko) Chrome/107.0.0.0 Safari/537.36" etag="FitDw6t1YlOahG-JfAaK" version="20.6.0" type="github">
  <diagram id="C8AFp-pyY6J9dGBlVLXl" name="Page-1">
    <mxGraphModel dx="3644" dy="2308" grid="0" gridSize="10" guides="1" tooltips="1" connect="1" arrows="1" fold="1" page="0" pageScale="1" pageWidth="827" pageHeight="1169" math="0" shadow="0">
      <root>
        <mxCell id="0" />
        <mxCell id="1" parent="0" />
        <mxCell id="7b7uNmIIZu-2F_9M2HFx-2" value="User" style="rounded=0;whiteSpace=wrap;html=1;fontSize=18;align=left;spacingLeft=2;" parent="1" vertex="1">
          <mxGeometry x="-650" y="20" width="540" height="40" as="geometry" />
        </mxCell>
        <mxCell id="7b7uNmIIZu-2F_9M2HFx-3" value="Has first name&lt;br style=&quot;font-size: 18px;&quot;&gt;Has surname&lt;br style=&quot;font-size: 18px;&quot;&gt;Has username&lt;br style=&quot;font-size: 18px;&quot;&gt;Has password&lt;br style=&quot;font-size: 18px;&quot;&gt;Has referral code&lt;br style=&quot;font-size: 18px;&quot;&gt;Generates a referral code&lt;br style=&quot;font-size: 18px;&quot;&gt;Can set goals&lt;br style=&quot;font-size: 18px;&quot;&gt;Can complete quizzes&lt;br style=&quot;font-size: 18px;&quot;&gt;Has a tracker&lt;br style=&quot;font-size: 18px;&quot;&gt;Can change between food and exercise tracker&lt;br style=&quot;font-size: 18px;&quot;&gt;Can retrieve recommendations" style="rounded=0;whiteSpace=wrap;html=1;fontSize=18;align=left;spacingLeft=2;verticalAlign=top;" parent="1" vertex="1">
          <mxGeometry x="-650" y="60" width="390" height="250" as="geometry" />
        </mxCell>
        <mxCell id="7b7uNmIIZu-2F_9M2HFx-4" value="Tracker&lt;br style=&quot;font-size: 18px;&quot;&gt;Quizzes&lt;br style=&quot;font-size: 18px;&quot;&gt;Recommendation&lt;br style=&quot;font-size: 18px;&quot;&gt;Goals" style="rounded=0;whiteSpace=wrap;html=1;fontSize=18;align=left;spacingLeft=2;verticalAlign=top;" parent="1" vertex="1">
          <mxGeometry x="-260" y="60" width="150" height="250" as="geometry" />
        </mxCell>
        <mxCell id="7b7uNmIIZu-2F_9M2HFx-5" value="Tracker" style="rounded=0;whiteSpace=wrap;html=1;fontSize=18;align=left;spacingLeft=2;" parent="1" vertex="1">
          <mxGeometry x="-60" y="-450" width="530" height="40" as="geometry" />
        </mxCell>
        <mxCell id="7b7uNmIIZu-2F_9M2HFx-6" value="Has foods&lt;br style=&quot;font-size: 18px;&quot;&gt;Has exercises&lt;br style=&quot;font-size: 18px;&quot;&gt;Can only show foods or exercises at a time&lt;br style=&quot;font-size: 18px;&quot;&gt;Can add foods&lt;br style=&quot;font-size: 18px;&quot;&gt;Can add exercises&lt;br style=&quot;font-size: 18px;&quot;&gt;Can update / delete foods&lt;br style=&quot;font-size: 18px;&quot;&gt;Can update / delete exercises&lt;br style=&quot;font-size: 18px;&quot;&gt;Can swap between foods and exercises&lt;br style=&quot;font-size: 18px;&quot;&gt;Can synchronise smart watch exercises&lt;br style=&quot;font-size: 18px;&quot;&gt;Provides details for recommendations&lt;br style=&quot;font-size: 18px;&quot;&gt;" style="rounded=0;whiteSpace=wrap;html=1;fontSize=18;align=left;spacingLeft=2;verticalAlign=top;" parent="1" vertex="1">
          <mxGeometry x="-60" y="-410" width="390" height="250" as="geometry" />
        </mxCell>
        <mxCell id="7b7uNmIIZu-2F_9M2HFx-7" value="User&lt;br style=&quot;font-size: 18px;&quot;&gt;Food&lt;br style=&quot;font-size: 18px;&quot;&gt;Exercise&lt;br style=&quot;font-size: 18px;&quot;&gt;Recommendation" style="rounded=0;whiteSpace=wrap;html=1;fontSize=18;align=left;spacingLeft=2;verticalAlign=top;" parent="1" vertex="1">
          <mxGeometry x="330" y="-410" width="150" height="250" as="geometry" />
        </mxCell>
        <mxCell id="7b7uNmIIZu-2F_9M2HFx-8" value="Recommendation" style="rounded=0;whiteSpace=wrap;html=1;fontSize=18;align=left;spacingLeft=2;" parent="1" vertex="1">
          <mxGeometry x="-60" y="-130" width="530" height="40" as="geometry" />
        </mxCell>
        <mxCell id="7b7uNmIIZu-2F_9M2HFx-9" value="Has recomendations&lt;br style=&quot;font-size: 18px;&quot;&gt;Has suggested articles&lt;br style=&quot;font-size: 18px;&quot;&gt;Knows tracker information&lt;br style=&quot;font-size: 18px;&quot;&gt;Knows goals information&lt;br style=&quot;font-size: 18px;&quot;&gt;Generates recommendations&lt;br style=&quot;font-size: 18px;&quot;&gt;Picks suggested articles" style="rounded=0;whiteSpace=wrap;html=1;fontSize=18;align=left;spacingLeft=2;verticalAlign=top;" parent="1" vertex="1">
          <mxGeometry x="-60" y="-90" width="390" height="250" as="geometry" />
        </mxCell>
        <mxCell id="7b7uNmIIZu-2F_9M2HFx-10" value="User&lt;br style=&quot;font-size: 18px;&quot;&gt;Tracker&lt;br style=&quot;font-size: 18px;&quot;&gt;Goals" style="rounded=0;whiteSpace=wrap;html=1;fontSize=18;align=left;spacingLeft=2;verticalAlign=top;" parent="1" vertex="1">
          <mxGeometry x="330" y="-90" width="150" height="250" as="geometry" />
        </mxCell>
        <mxCell id="7b7uNmIIZu-2F_9M2HFx-26" value="Goal" style="rounded=0;whiteSpace=wrap;html=1;fontSize=18;align=left;spacingLeft=2;" parent="1" vertex="1">
          <mxGeometry x="510" y="190" width="540" height="40" as="geometry" />
        </mxCell>
        <mxCell id="7b7uNmIIZu-2F_9M2HFx-27" value="Has description&lt;br style=&quot;font-size: 18px;&quot;&gt;Has progress indicatior (as a percentage)&lt;br style=&quot;font-size: 18px;&quot;&gt;Updates current progress" style="rounded=0;whiteSpace=wrap;html=1;fontSize=18;align=left;spacingLeft=2;verticalAlign=top;" parent="1" vertex="1">
          <mxGeometry x="510" y="230" width="390" height="250" as="geometry" />
        </mxCell>
        <mxCell id="7b7uNmIIZu-2F_9M2HFx-28" value="Goals" style="rounded=0;whiteSpace=wrap;html=1;fontSize=18;align=left;spacingLeft=2;verticalAlign=top;" parent="1" vertex="1">
          <mxGeometry x="900" y="230" width="150" height="250" as="geometry" />
        </mxCell>
        <mxCell id="7b7uNmIIZu-2F_9M2HFx-32" value="Quizzes" style="rounded=0;whiteSpace=wrap;html=1;fontSize=18;align=left;spacingLeft=2;" parent="1" vertex="1">
          <mxGeometry x="-60" y="510" width="540" height="40" as="geometry" />
        </mxCell>
        <mxCell id="7b7uNmIIZu-2F_9M2HFx-33" value="Has daily quiz&lt;br style=&quot;font-size: 18px;&quot;&gt;Has month quiz&lt;br style=&quot;font-size: 18px;&quot;&gt;Has list of previous quizzes&lt;br style=&quot;font-size: 18px;&quot;&gt;Marks quiz as complete&lt;br style=&quot;font-size: 18px;&quot;&gt;Generates day quiz&lt;br style=&quot;font-size: 18px;&quot;&gt;Generates month quiz" style="rounded=0;whiteSpace=wrap;html=1;fontSize=18;align=left;spacingLeft=2;verticalAlign=top;" parent="1" vertex="1">
          <mxGeometry x="-60" y="550" width="390" height="250" as="geometry" />
        </mxCell>
        <mxCell id="7b7uNmIIZu-2F_9M2HFx-34" value="User" style="rounded=0;whiteSpace=wrap;html=1;fontSize=18;align=left;spacingLeft=2;verticalAlign=top;" parent="1" vertex="1">
          <mxGeometry x="330" y="550" width="150" height="250" as="geometry" />
        </mxCell>
        <mxCell id="7b7uNmIIZu-2F_9M2HFx-35" value="Goals" style="rounded=0;whiteSpace=wrap;html=1;fontSize=18;align=left;spacingLeft=2;" parent="1" vertex="1">
          <mxGeometry x="-60" y="190" width="540" height="40" as="geometry" />
        </mxCell>
        <mxCell id="7b7uNmIIZu-2F_9M2HFx-36" value="Has active week goals&lt;br style=&quot;font-size: 18px;&quot;&gt;Has active month goals&lt;br style=&quot;font-size: 18px;&quot;&gt;Has inactive goals&lt;br style=&quot;font-size: 18px;&quot;&gt;Has list of completed goals&lt;br style=&quot;font-size: 18px;&quot;&gt;Generates a new inactive goal&lt;br style=&quot;font-size: 18px;&quot;&gt;Refreshes the inactive goals&lt;br style=&quot;font-size: 18px;&quot;&gt;Provides details for recommendations&amp;nbsp;&lt;br style=&quot;font-size: 18px;&quot;&gt;Fetches information from tracker&lt;br style=&quot;font-size: 18px;&quot;&gt;Checks goal progress&lt;br style=&quot;font-size: 18px;&quot;&gt;Marks goal as completed&lt;br style=&quot;font-size: 18px;&quot;&gt;Can check progress of goals" style="rounded=0;whiteSpace=wrap;html=1;fontSize=18;align=left;spacingLeft=2;verticalAlign=top;" parent="1" vertex="1">
          <mxGeometry x="-60" y="230" width="390" height="250" as="geometry" />
        </mxCell>
        <mxCell id="7b7uNmIIZu-2F_9M2HFx-37" value="User&lt;br style=&quot;font-size: 18px;&quot;&gt;Recommendation&lt;br style=&quot;font-size: 18px;&quot;&gt;Tracker" style="rounded=0;whiteSpace=wrap;html=1;fontSize=18;align=left;spacingLeft=2;verticalAlign=top;" parent="1" vertex="1">
          <mxGeometry x="330" y="230" width="150" height="250" as="geometry" />
        </mxCell>
        <mxCell id="7b7uNmIIZu-2F_9M2HFx-38" value="Exercise" style="rounded=0;whiteSpace=wrap;html=1;fontSize=18;align=left;spacingLeft=2;" parent="1" vertex="1">
          <mxGeometry x="510" y="-670" width="530" height="40" as="geometry" />
        </mxCell>
        <mxCell id="7b7uNmIIZu-2F_9M2HFx-39" value="Has exercise type&lt;br style=&quot;font-size: 18px;&quot;&gt;Has exercise length&lt;br style=&quot;font-size: 18px;&quot;&gt;Has start and end of exercise&lt;br style=&quot;font-size: 18px;&quot;&gt;Estimates calorie usage" style="rounded=0;whiteSpace=wrap;html=1;fontSize=18;align=left;spacingLeft=2;verticalAlign=top;" parent="1" vertex="1">
          <mxGeometry x="510" y="-630" width="390" height="250" as="geometry" />
        </mxCell>
        <mxCell id="7b7uNmIIZu-2F_9M2HFx-40" value="Tracker" style="rounded=0;whiteSpace=wrap;html=1;fontSize=18;align=left;spacingLeft=2;verticalAlign=top;" parent="1" vertex="1">
          <mxGeometry x="900" y="-630" width="150" height="250" as="geometry" />
        </mxCell>
        <mxCell id="7b7uNmIIZu-2F_9M2HFx-41" value="Food" style="rounded=0;whiteSpace=wrap;html=1;fontSize=18;align=left;spacingLeft=2;" parent="1" vertex="1">
          <mxGeometry x="510" y="-330" width="530" height="40" as="geometry" />
        </mxCell>
        <mxCell id="7b7uNmIIZu-2F_9M2HFx-42" value="Has food type&lt;br style=&quot;font-size: 18px;&quot;&gt;Has food name&lt;br style=&quot;font-size: 18px;&quot;&gt;Has serving size (in grams)&lt;br style=&quot;font-size: 18px;&quot;&gt;Has time of eating&lt;br style=&quot;font-size: 18px;&quot;&gt;Estimates calorie intake" style="rounded=0;whiteSpace=wrap;html=1;fontSize=18;align=left;spacingLeft=2;verticalAlign=top;" parent="1" vertex="1">
          <mxGeometry x="510" y="-290" width="390" height="250" as="geometry" />
        </mxCell>
        <mxCell id="7b7uNmIIZu-2F_9M2HFx-43" value="Tracker" style="rounded=0;whiteSpace=wrap;html=1;fontSize=18;align=left;spacingLeft=2;verticalAlign=top;" parent="1" vertex="1">
          <mxGeometry x="900" y="-290" width="150" height="250" as="geometry" />
        </mxCell>
        <mxCell id="KnIYCJtJgT_xI70_bm0W-1" value="Tracker" style="rounded=0;whiteSpace=wrap;html=1;fontSize=18;align=left;spacingLeft=2;" vertex="1" parent="1">
          <mxGeometry x="-60" y="-450" width="540" height="40" as="geometry" />
        </mxCell>
        <mxCell id="KnIYCJtJgT_xI70_bm0W-2" value="Exercise" style="rounded=0;whiteSpace=wrap;html=1;fontSize=18;align=left;spacingLeft=2;" vertex="1" parent="1">
          <mxGeometry x="510" y="-670" width="540" height="40" as="geometry" />
        </mxCell>
        <mxCell id="KnIYCJtJgT_xI70_bm0W-3" value="Food" style="rounded=0;whiteSpace=wrap;html=1;fontSize=18;align=left;spacingLeft=2;" vertex="1" parent="1">
          <mxGeometry x="510" y="-330" width="540" height="40" as="geometry" />
        </mxCell>
        <mxCell id="KnIYCJtJgT_xI70_bm0W-4" value="Recommendation" style="rounded=0;whiteSpace=wrap;html=1;fontSize=18;align=left;spacingLeft=2;" vertex="1" parent="1">
          <mxGeometry x="-60" y="-130" width="540" height="40" as="geometry" />
        </mxCell>
      </root>
    </mxGraphModel>
  </diagram>
</mxfile>
